<?xml version="1.0" encoding="utf-8"?>
<svg xmlns="http://www.w3.org/2000/svg" xmlns:xlink="http://www.w3.org/1999/xlink" width="600" height="400" viewBox="0 0 2400 1600">
<defs>
  <clipPath id="clip450">
    <rect x="0" y="0" width="2400" height="1600"/>
  </clipPath>
</defs>
<path clip-path="url(#clip450)" d="M0 1600 L2400 1600 L2400 0 L0 0  Z" fill="#ffffff" fill-rule="evenodd" fill-opacity="1"/>
<defs>
  <clipPath id="clip451">
    <rect x="480" y="0" width="1681" height="1600"/>
  </clipPath>
</defs>
<path clip-path="url(#clip450)" d="M184.191 1486.45 L2352.76 1486.45 L2352.76 47.2441 L184.191 47.2441  Z" fill="#ffffff" fill-rule="evenodd" fill-opacity="1"/>
<defs>
  <clipPath id="clip452">
    <rect x="184" y="47" width="2170" height="1440"/>
  </clipPath>
</defs>
<polyline clip-path="url(#clip452)" style="stroke:#000000; stroke-linecap:round; stroke-linejoin:round; stroke-width:2; stroke-opacity:0.1; fill:none" points="472.878,1486.45 472.878,47.2441 "/>
<polyline clip-path="url(#clip452)" style="stroke:#000000; stroke-linecap:round; stroke-linejoin:round; stroke-width:2; stroke-opacity:0.1; fill:none" points="927.504,1486.45 927.504,47.2441 "/>
<polyline clip-path="url(#clip452)" style="stroke:#000000; stroke-linecap:round; stroke-linejoin:round; stroke-width:2; stroke-opacity:0.1; fill:none" points="1382.13,1486.45 1382.13,47.2441 "/>
<polyline clip-path="url(#clip452)" style="stroke:#000000; stroke-linecap:round; stroke-linejoin:round; stroke-width:2; stroke-opacity:0.1; fill:none" points="1836.76,1486.45 1836.76,47.2441 "/>
<polyline clip-path="url(#clip452)" style="stroke:#000000; stroke-linecap:round; stroke-linejoin:round; stroke-width:2; stroke-opacity:0.1; fill:none" points="2291.38,1486.45 2291.38,47.2441 "/>
<polyline clip-path="url(#clip450)" style="stroke:#000000; stroke-linecap:round; stroke-linejoin:round; stroke-width:4; stroke-opacity:1; fill:none" points="184.191,1486.45 2352.76,1486.45 "/>
<polyline clip-path="url(#clip450)" style="stroke:#000000; stroke-linecap:round; stroke-linejoin:round; stroke-width:4; stroke-opacity:1; fill:none" points="472.878,1486.45 472.878,1467.55 "/>
<polyline clip-path="url(#clip450)" style="stroke:#000000; stroke-linecap:round; stroke-linejoin:round; stroke-width:4; stroke-opacity:1; fill:none" points="927.504,1486.45 927.504,1467.55 "/>
<polyline clip-path="url(#clip450)" style="stroke:#000000; stroke-linecap:round; stroke-linejoin:round; stroke-width:4; stroke-opacity:1; fill:none" points="1382.13,1486.45 1382.13,1467.55 "/>
<polyline clip-path="url(#clip450)" style="stroke:#000000; stroke-linecap:round; stroke-linejoin:round; stroke-width:4; stroke-opacity:1; fill:none" points="1836.76,1486.45 1836.76,1467.55 "/>
<polyline clip-path="url(#clip450)" style="stroke:#000000; stroke-linecap:round; stroke-linejoin:round; stroke-width:4; stroke-opacity:1; fill:none" points="2291.38,1486.45 2291.38,1467.55 "/>
<path clip-path="url(#clip450)" d="M467.531 1544.91 L483.85 1544.91 L483.85 1548.85 L461.906 1548.85 L461.906 1544.91 Q464.568 1542.16 469.151 1537.53 Q473.758 1532.88 474.938 1531.53 Q477.184 1529.01 478.063 1527.27 Q478.966 1525.51 478.966 1523.82 Q478.966 1521.07 477.022 1519.33 Q475.1 1517.6 471.998 1517.6 Q469.799 1517.6 467.346 1518.36 Q464.915 1519.13 462.137 1520.68 L462.137 1515.95 Q464.961 1514.82 467.415 1514.24 Q469.869 1513.66 471.906 1513.66 Q477.276 1513.66 480.471 1516.35 Q483.665 1519.03 483.665 1523.52 Q483.665 1525.65 482.855 1527.57 Q482.068 1529.47 479.961 1532.07 Q479.383 1532.74 476.281 1535.95 Q473.179 1539.15 467.531 1544.91 Z" fill="#000000" fill-rule="nonzero" fill-opacity="1" /><path clip-path="url(#clip450)" d="M930.513 1518.36 L918.708 1536.81 L930.513 1536.81 L930.513 1518.36 M929.286 1514.29 L935.166 1514.29 L935.166 1536.81 L940.096 1536.81 L940.096 1540.7 L935.166 1540.7 L935.166 1548.85 L930.513 1548.85 L930.513 1540.7 L914.911 1540.7 L914.911 1536.19 L929.286 1514.29 Z" fill="#000000" fill-rule="nonzero" fill-opacity="1" /><path clip-path="url(#clip450)" d="M1382.53 1529.7 Q1379.39 1529.7 1377.53 1531.86 Q1375.71 1534.01 1375.71 1537.76 Q1375.71 1541.49 1377.53 1543.66 Q1379.39 1545.82 1382.53 1545.82 Q1385.68 1545.82 1387.51 1543.66 Q1389.36 1541.49 1389.36 1537.76 Q1389.36 1534.01 1387.51 1531.86 Q1385.68 1529.7 1382.53 1529.7 M1391.82 1515.05 L1391.82 1519.31 Q1390.06 1518.48 1388.25 1518.04 Q1386.47 1517.6 1384.71 1517.6 Q1380.08 1517.6 1377.63 1520.72 Q1375.2 1523.85 1374.85 1530.17 Q1376.22 1528.15 1378.28 1527.09 Q1380.34 1526 1382.81 1526 Q1388.02 1526 1391.03 1529.17 Q1394.06 1532.32 1394.06 1537.76 Q1394.06 1543.08 1390.91 1546.3 Q1387.77 1549.52 1382.53 1549.52 Q1376.54 1549.52 1373.37 1544.94 Q1370.2 1540.33 1370.2 1531.6 Q1370.2 1523.41 1374.09 1518.55 Q1377.97 1513.66 1384.53 1513.66 Q1386.28 1513.66 1388.07 1514.01 Q1389.87 1514.36 1391.82 1515.05 Z" fill="#000000" fill-rule="nonzero" fill-opacity="1" /><path clip-path="url(#clip450)" d="M1836.76 1532.44 Q1833.42 1532.44 1831.5 1534.22 Q1829.6 1536 1829.6 1539.13 Q1829.6 1542.25 1831.5 1544.03 Q1833.42 1545.82 1836.76 1545.82 Q1840.09 1545.82 1842.01 1544.03 Q1843.93 1542.23 1843.93 1539.13 Q1843.93 1536 1842.01 1534.22 Q1840.11 1532.44 1836.76 1532.44 M1832.08 1530.45 Q1829.07 1529.7 1827.38 1527.64 Q1825.71 1525.58 1825.71 1522.62 Q1825.71 1518.48 1828.65 1516.07 Q1831.62 1513.66 1836.76 1513.66 Q1841.92 1513.66 1844.86 1516.07 Q1847.8 1518.48 1847.8 1522.62 Q1847.8 1525.58 1846.11 1527.64 Q1844.44 1529.7 1841.45 1530.45 Q1844.83 1531.23 1846.71 1533.52 Q1848.61 1535.82 1848.61 1539.13 Q1848.61 1544.15 1845.53 1546.83 Q1842.47 1549.52 1836.76 1549.52 Q1831.04 1549.52 1827.96 1546.83 Q1824.9 1544.15 1824.9 1539.13 Q1824.9 1535.82 1826.8 1533.52 Q1828.7 1531.23 1832.08 1530.45 M1830.37 1523.06 Q1830.37 1525.75 1832.03 1527.25 Q1833.72 1528.76 1836.76 1528.76 Q1839.76 1528.76 1841.45 1527.25 Q1843.17 1525.75 1843.17 1523.06 Q1843.17 1520.38 1841.45 1518.87 Q1839.76 1517.37 1836.76 1517.37 Q1833.72 1517.37 1832.03 1518.87 Q1830.37 1520.38 1830.37 1523.06 Z" fill="#000000" fill-rule="nonzero" fill-opacity="1" /><path clip-path="url(#clip450)" d="M2266.07 1544.91 L2273.71 1544.91 L2273.71 1518.55 L2265.4 1520.21 L2265.4 1515.95 L2273.66 1514.29 L2278.34 1514.29 L2278.34 1544.91 L2285.98 1544.91 L2285.98 1548.85 L2266.07 1548.85 L2266.07 1544.91 Z" fill="#000000" fill-rule="nonzero" fill-opacity="1" /><path clip-path="url(#clip450)" d="M2305.42 1517.37 Q2301.81 1517.37 2299.98 1520.93 Q2298.18 1524.47 2298.18 1531.6 Q2298.18 1538.71 2299.98 1542.27 Q2301.81 1545.82 2305.42 1545.82 Q2309.05 1545.82 2310.86 1542.27 Q2312.69 1538.71 2312.69 1531.6 Q2312.69 1524.47 2310.86 1520.93 Q2309.05 1517.37 2305.42 1517.37 M2305.42 1513.66 Q2311.23 1513.66 2314.29 1518.27 Q2317.37 1522.85 2317.37 1531.6 Q2317.37 1540.33 2314.29 1544.94 Q2311.23 1549.52 2305.42 1549.52 Q2299.61 1549.52 2296.53 1544.94 Q2293.48 1540.33 2293.48 1531.6 Q2293.48 1522.85 2296.53 1518.27 Q2299.61 1513.66 2305.42 1513.66 Z" fill="#000000" fill-rule="nonzero" fill-opacity="1" /><polyline clip-path="url(#clip452)" style="stroke:#000000; stroke-linecap:round; stroke-linejoin:round; stroke-width:2; stroke-opacity:0.1; fill:none" points="184.191,1332.57 2352.76,1332.57 "/>
<polyline clip-path="url(#clip452)" style="stroke:#000000; stroke-linecap:round; stroke-linejoin:round; stroke-width:2; stroke-opacity:0.1; fill:none" points="184.191,1144 2352.76,1144 "/>
<polyline clip-path="url(#clip452)" style="stroke:#000000; stroke-linecap:round; stroke-linejoin:round; stroke-width:2; stroke-opacity:0.1; fill:none" points="184.191,955.421 2352.76,955.421 "/>
<polyline clip-path="url(#clip452)" style="stroke:#000000; stroke-linecap:round; stroke-linejoin:round; stroke-width:2; stroke-opacity:0.1; fill:none" points="184.191,766.846 2352.76,766.846 "/>
<polyline clip-path="url(#clip452)" style="stroke:#000000; stroke-linecap:round; stroke-linejoin:round; stroke-width:2; stroke-opacity:0.1; fill:none" points="184.191,578.271 2352.76,578.271 "/>
<polyline clip-path="url(#clip452)" style="stroke:#000000; stroke-linecap:round; stroke-linejoin:round; stroke-width:2; stroke-opacity:0.1; fill:none" points="184.191,389.696 2352.76,389.696 "/>
<polyline clip-path="url(#clip452)" style="stroke:#000000; stroke-linecap:round; stroke-linejoin:round; stroke-width:2; stroke-opacity:0.1; fill:none" points="184.191,201.121 2352.76,201.121 "/>
<polyline clip-path="url(#clip450)" style="stroke:#000000; stroke-linecap:round; stroke-linejoin:round; stroke-width:4; stroke-opacity:1; fill:none" points="184.191,1486.45 184.191,47.2441 "/>
<polyline clip-path="url(#clip450)" style="stroke:#000000; stroke-linecap:round; stroke-linejoin:round; stroke-width:4; stroke-opacity:1; fill:none" points="184.191,1332.57 203.088,1332.57 "/>
<polyline clip-path="url(#clip450)" style="stroke:#000000; stroke-linecap:round; stroke-linejoin:round; stroke-width:4; stroke-opacity:1; fill:none" points="184.191,1144 203.088,1144 "/>
<polyline clip-path="url(#clip450)" style="stroke:#000000; stroke-linecap:round; stroke-linejoin:round; stroke-width:4; stroke-opacity:1; fill:none" points="184.191,955.421 203.088,955.421 "/>
<polyline clip-path="url(#clip450)" style="stroke:#000000; stroke-linecap:round; stroke-linejoin:round; stroke-width:4; stroke-opacity:1; fill:none" points="184.191,766.846 203.088,766.846 "/>
<polyline clip-path="url(#clip450)" style="stroke:#000000; stroke-linecap:round; stroke-linejoin:round; stroke-width:4; stroke-opacity:1; fill:none" points="184.191,578.271 203.088,578.271 "/>
<polyline clip-path="url(#clip450)" style="stroke:#000000; stroke-linecap:round; stroke-linejoin:round; stroke-width:4; stroke-opacity:1; fill:none" points="184.191,389.696 203.088,389.696 "/>
<polyline clip-path="url(#clip450)" style="stroke:#000000; stroke-linecap:round; stroke-linejoin:round; stroke-width:4; stroke-opacity:1; fill:none" points="184.191,201.121 203.088,201.121 "/>
<path clip-path="url(#clip450)" d="M86.0382 1345.92 L102.358 1345.92 L102.358 1349.85 L80.4133 1349.85 L80.4133 1345.92 Q83.0753 1343.16 87.6586 1338.53 Q92.2651 1333.88 93.4456 1332.54 Q95.691 1330.01 96.5706 1328.28 Q97.4734 1326.52 97.4734 1324.83 Q97.4734 1322.07 95.5289 1320.34 Q93.6076 1318.6 90.5058 1318.6 Q88.3067 1318.6 85.8531 1319.36 Q83.4225 1320.13 80.6447 1321.68 L80.6447 1316.96 Q83.4688 1315.82 85.9225 1315.24 Q88.3762 1314.67 90.4132 1314.67 Q95.7836 1314.67 98.978 1317.35 Q102.172 1320.04 102.172 1324.53 Q102.172 1326.66 101.362 1328.58 Q100.575 1330.48 98.4687 1333.07 Q97.89 1333.74 94.7882 1336.96 Q91.6864 1340.15 86.0382 1345.92 Z" fill="#000000" fill-rule="nonzero" fill-opacity="1" /><path clip-path="url(#clip450)" d="M112.172 1343.97 L117.057 1343.97 L117.057 1349.85 L112.172 1349.85 L112.172 1343.97 Z" fill="#000000" fill-rule="nonzero" fill-opacity="1" /><path clip-path="url(#clip450)" d="M127.288 1315.29 L145.644 1315.29 L145.644 1319.23 L131.57 1319.23 L131.57 1327.7 Q132.589 1327.35 133.607 1327.19 Q134.626 1327 135.644 1327 Q141.431 1327 144.811 1330.17 Q148.191 1333.35 148.191 1338.76 Q148.191 1344.34 144.718 1347.44 Q141.246 1350.52 134.927 1350.52 Q132.751 1350.52 130.482 1350.15 Q128.237 1349.78 125.83 1349.04 L125.83 1344.34 Q127.913 1345.48 130.135 1346.03 Q132.357 1346.59 134.834 1346.59 Q138.839 1346.59 141.177 1344.48 Q143.515 1342.37 143.515 1338.76 Q143.515 1335.15 141.177 1333.05 Q138.839 1330.94 134.834 1330.94 Q132.959 1330.94 131.084 1331.36 Q129.232 1331.77 127.288 1332.65 L127.288 1315.29 Z" fill="#000000" fill-rule="nonzero" fill-opacity="1" /><path clip-path="url(#clip450)" d="M81.0614 1126.72 L99.4178 1126.72 L99.4178 1130.65 L85.3438 1130.65 L85.3438 1139.12 Q86.3623 1138.78 87.3808 1138.61 Q88.3993 1138.43 89.4178 1138.43 Q95.2049 1138.43 98.5845 1141.6 Q101.964 1144.77 101.964 1150.19 Q101.964 1155.77 98.4919 1158.87 Q95.0197 1161.95 88.7003 1161.95 Q86.5243 1161.95 84.2558 1161.58 Q82.0105 1161.21 79.6031 1160.47 L79.6031 1155.77 Q81.6864 1156.9 83.9086 1157.46 Q86.1308 1158.01 88.6077 1158.01 Q92.6123 1158.01 94.9502 1155.91 Q97.2882 1153.8 97.2882 1150.19 Q97.2882 1146.58 94.9502 1144.47 Q92.6123 1142.36 88.6077 1142.36 Q86.7327 1142.36 84.8577 1142.78 Q83.0058 1143.2 81.0614 1144.08 L81.0614 1126.72 Z" fill="#000000" fill-rule="nonzero" fill-opacity="1" /><path clip-path="url(#clip450)" d="M111.177 1155.4 L116.061 1155.4 L116.061 1161.28 L111.177 1161.28 L111.177 1155.4 Z" fill="#000000" fill-rule="nonzero" fill-opacity="1" /><path clip-path="url(#clip450)" d="M136.246 1129.79 Q132.635 1129.79 130.807 1133.36 Q129.001 1136.9 129.001 1144.03 Q129.001 1151.14 130.807 1154.7 Q132.635 1158.24 136.246 1158.24 Q139.881 1158.24 141.686 1154.7 Q143.515 1151.14 143.515 1144.03 Q143.515 1136.9 141.686 1133.36 Q139.881 1129.79 136.246 1129.79 M136.246 1126.09 Q142.056 1126.09 145.112 1130.7 Q148.191 1135.28 148.191 1144.03 Q148.191 1152.76 145.112 1157.36 Q142.056 1161.95 136.246 1161.95 Q130.436 1161.95 127.357 1157.36 Q124.302 1152.76 124.302 1144.03 Q124.302 1135.28 127.357 1130.7 Q130.436 1126.09 136.246 1126.09 Z" fill="#000000" fill-rule="nonzero" fill-opacity="1" /><path clip-path="url(#clip450)" d="M80.8299 938.141 L103.052 938.141 L103.052 940.132 L90.5058 972.701 L85.6216 972.701 L97.4271 942.076 L80.8299 942.076 L80.8299 938.141 Z" fill="#000000" fill-rule="nonzero" fill-opacity="1" /><path clip-path="url(#clip450)" d="M112.172 966.821 L117.057 966.821 L117.057 972.701 L112.172 972.701 L112.172 966.821 Z" fill="#000000" fill-rule="nonzero" fill-opacity="1" /><path clip-path="url(#clip450)" d="M127.288 938.141 L145.644 938.141 L145.644 942.076 L131.57 942.076 L131.57 950.548 Q132.589 950.201 133.607 950.039 Q134.626 949.854 135.644 949.854 Q141.431 949.854 144.811 953.025 Q148.191 956.196 148.191 961.613 Q148.191 967.192 144.718 970.294 Q141.246 973.372 134.927 973.372 Q132.751 973.372 130.482 973.002 Q128.237 972.631 125.83 971.891 L125.83 967.192 Q127.913 968.326 130.135 968.881 Q132.357 969.437 134.834 969.437 Q138.839 969.437 141.177 967.331 Q143.515 965.224 143.515 961.613 Q143.515 958.002 141.177 955.895 Q138.839 953.789 134.834 953.789 Q132.959 953.789 131.084 954.206 Q129.232 954.622 127.288 955.502 L127.288 938.141 Z" fill="#000000" fill-rule="nonzero" fill-opacity="1" /><path clip-path="url(#clip450)" d="M51.6634 780.191 L59.3023 780.191 L59.3023 753.825 L50.9921 755.492 L50.9921 751.233 L59.256 749.566 L63.9319 749.566 L63.9319 780.191 L71.5707 780.191 L71.5707 784.126 L51.6634 784.126 L51.6634 780.191 Z" fill="#000000" fill-rule="nonzero" fill-opacity="1" /><path clip-path="url(#clip450)" d="M91.0151 752.645 Q87.404 752.645 85.5753 756.209 Q83.7697 759.751 83.7697 766.881 Q83.7697 773.987 85.5753 777.552 Q87.404 781.094 91.0151 781.094 Q94.6493 781.094 96.4548 777.552 Q98.2835 773.987 98.2835 766.881 Q98.2835 759.751 96.4548 756.209 Q94.6493 752.645 91.0151 752.645 M91.0151 748.941 Q96.8252 748.941 99.8808 753.547 Q102.959 758.131 102.959 766.881 Q102.959 775.608 99.8808 780.214 Q96.8252 784.797 91.0151 784.797 Q85.2049 784.797 82.1262 780.214 Q79.0707 775.608 79.0707 766.881 Q79.0707 758.131 82.1262 753.547 Q85.2049 748.941 91.0151 748.941 Z" fill="#000000" fill-rule="nonzero" fill-opacity="1" /><path clip-path="url(#clip450)" d="M111.177 778.246 L116.061 778.246 L116.061 784.126 L111.177 784.126 L111.177 778.246 Z" fill="#000000" fill-rule="nonzero" fill-opacity="1" /><path clip-path="url(#clip450)" d="M136.246 752.645 Q132.635 752.645 130.807 756.209 Q129.001 759.751 129.001 766.881 Q129.001 773.987 130.807 777.552 Q132.635 781.094 136.246 781.094 Q139.881 781.094 141.686 777.552 Q143.515 773.987 143.515 766.881 Q143.515 759.751 141.686 756.209 Q139.881 752.645 136.246 752.645 M136.246 748.941 Q142.056 748.941 145.112 753.547 Q148.191 758.131 148.191 766.881 Q148.191 775.608 145.112 780.214 Q142.056 784.797 136.246 784.797 Q130.436 784.797 127.357 780.214 Q124.302 775.608 124.302 766.881 Q124.302 758.131 127.357 753.547 Q130.436 748.941 136.246 748.941 Z" fill="#000000" fill-rule="nonzero" fill-opacity="1" /><path clip-path="url(#clip450)" d="M52.6588 591.616 L60.2976 591.616 L60.2976 565.25 L51.9875 566.917 L51.9875 562.658 L60.2513 560.991 L64.9272 560.991 L64.9272 591.616 L72.5661 591.616 L72.5661 595.551 L52.6588 595.551 L52.6588 591.616 Z" fill="#000000" fill-rule="nonzero" fill-opacity="1" /><path clip-path="url(#clip450)" d="M86.0382 591.616 L102.358 591.616 L102.358 595.551 L80.4133 595.551 L80.4133 591.616 Q83.0753 588.861 87.6586 584.232 Q92.2651 579.579 93.4456 578.236 Q95.691 575.713 96.5706 573.977 Q97.4734 572.218 97.4734 570.528 Q97.4734 567.773 95.5289 566.037 Q93.6076 564.301 90.5058 564.301 Q88.3067 564.301 85.8531 565.065 Q83.4225 565.829 80.6447 567.38 L80.6447 562.658 Q83.4688 561.523 85.9225 560.945 Q88.3762 560.366 90.4132 560.366 Q95.7836 560.366 98.978 563.051 Q102.172 565.736 102.172 570.227 Q102.172 572.357 101.362 574.278 Q100.575 576.176 98.4687 578.769 Q97.89 579.44 94.7882 582.658 Q91.6864 585.852 86.0382 591.616 Z" fill="#000000" fill-rule="nonzero" fill-opacity="1" /><path clip-path="url(#clip450)" d="M112.172 589.671 L117.057 589.671 L117.057 595.551 L112.172 595.551 L112.172 589.671 Z" fill="#000000" fill-rule="nonzero" fill-opacity="1" /><path clip-path="url(#clip450)" d="M127.288 560.991 L145.644 560.991 L145.644 564.926 L131.57 564.926 L131.57 573.398 Q132.589 573.051 133.607 572.889 Q134.626 572.704 135.644 572.704 Q141.431 572.704 144.811 575.875 Q148.191 579.047 148.191 584.463 Q148.191 590.042 144.718 593.144 Q141.246 596.222 134.927 596.222 Q132.751 596.222 130.482 595.852 Q128.237 595.482 125.83 594.741 L125.83 590.042 Q127.913 591.176 130.135 591.732 Q132.357 592.287 134.834 592.287 Q138.839 592.287 141.177 590.181 Q143.515 588.074 143.515 584.463 Q143.515 580.852 141.177 578.746 Q138.839 576.639 134.834 576.639 Q132.959 576.639 131.084 577.056 Q129.232 577.472 127.288 578.352 L127.288 560.991 Z" fill="#000000" fill-rule="nonzero" fill-opacity="1" /><path clip-path="url(#clip450)" d="M51.6634 403.041 L59.3023 403.041 L59.3023 376.675 L50.9921 378.342 L50.9921 374.083 L59.256 372.416 L63.9319 372.416 L63.9319 403.041 L71.5707 403.041 L71.5707 406.976 L51.6634 406.976 L51.6634 403.041 Z" fill="#000000" fill-rule="nonzero" fill-opacity="1" /><path clip-path="url(#clip450)" d="M81.0614 372.416 L99.4178 372.416 L99.4178 376.351 L85.3438 376.351 L85.3438 384.823 Q86.3623 384.476 87.3808 384.314 Q88.3993 384.129 89.4178 384.129 Q95.2049 384.129 98.5845 387.3 Q101.964 390.472 101.964 395.888 Q101.964 401.467 98.4919 404.569 Q95.0197 407.647 88.7003 407.647 Q86.5243 407.647 84.2558 407.277 Q82.0105 406.907 79.6031 406.166 L79.6031 401.467 Q81.6864 402.601 83.9086 403.157 Q86.1308 403.712 88.6077 403.712 Q92.6123 403.712 94.9502 401.606 Q97.2882 399.499 97.2882 395.888 Q97.2882 392.277 94.9502 390.171 Q92.6123 388.064 88.6077 388.064 Q86.7327 388.064 84.8577 388.481 Q83.0058 388.898 81.0614 389.777 L81.0614 372.416 Z" fill="#000000" fill-rule="nonzero" fill-opacity="1" /><path clip-path="url(#clip450)" d="M111.177 401.097 L116.061 401.097 L116.061 406.976 L111.177 406.976 L111.177 401.097 Z" fill="#000000" fill-rule="nonzero" fill-opacity="1" /><path clip-path="url(#clip450)" d="M136.246 375.495 Q132.635 375.495 130.807 379.06 Q129.001 382.601 129.001 389.731 Q129.001 396.837 130.807 400.402 Q132.635 403.944 136.246 403.944 Q139.881 403.944 141.686 400.402 Q143.515 396.837 143.515 389.731 Q143.515 382.601 141.686 379.06 Q139.881 375.495 136.246 375.495 M136.246 371.791 Q142.056 371.791 145.112 376.398 Q148.191 380.981 148.191 389.731 Q148.191 398.458 145.112 403.064 Q142.056 407.647 136.246 407.647 Q130.436 407.647 127.357 403.064 Q124.302 398.458 124.302 389.731 Q124.302 380.981 127.357 376.398 Q130.436 371.791 136.246 371.791 Z" fill="#000000" fill-rule="nonzero" fill-opacity="1" /><path clip-path="url(#clip450)" d="M52.6588 214.466 L60.2976 214.466 L60.2976 188.1 L51.9875 189.767 L51.9875 185.508 L60.2513 183.841 L64.9272 183.841 L64.9272 214.466 L72.5661 214.466 L72.5661 218.401 L52.6588 218.401 L52.6588 214.466 Z" fill="#000000" fill-rule="nonzero" fill-opacity="1" /><path clip-path="url(#clip450)" d="M80.8299 183.841 L103.052 183.841 L103.052 185.832 L90.5058 218.401 L85.6216 218.401 L97.4271 187.776 L80.8299 187.776 L80.8299 183.841 Z" fill="#000000" fill-rule="nonzero" fill-opacity="1" /><path clip-path="url(#clip450)" d="M112.172 212.522 L117.057 212.522 L117.057 218.401 L112.172 218.401 L112.172 212.522 Z" fill="#000000" fill-rule="nonzero" fill-opacity="1" /><path clip-path="url(#clip450)" d="M127.288 183.841 L145.644 183.841 L145.644 187.776 L131.57 187.776 L131.57 196.249 Q132.589 195.901 133.607 195.739 Q134.626 195.554 135.644 195.554 Q141.431 195.554 144.811 198.725 Q148.191 201.897 148.191 207.313 Q148.191 212.892 144.718 215.994 Q141.246 219.073 134.927 219.073 Q132.751 219.073 130.482 218.702 Q128.237 218.332 125.83 217.591 L125.83 212.892 Q127.913 214.026 130.135 214.582 Q132.357 215.137 134.834 215.137 Q138.839 215.137 141.177 213.031 Q143.515 210.924 143.515 207.313 Q143.515 203.702 141.177 201.596 Q138.839 199.489 134.834 199.489 Q132.959 199.489 131.084 199.906 Q129.232 200.323 127.288 201.202 L127.288 183.841 Z" fill="#000000" fill-rule="nonzero" fill-opacity="1" /><polyline clip-path="url(#clip452)" style="stroke:#009af9; stroke-linecap:round; stroke-linejoin:round; stroke-width:4; stroke-opacity:1; fill:none" points="245.565,1445.72 472.878,1294.86 700.191,1144 927.504,993.136 1154.82,842.276 1382.13,691.416 1609.44,540.556 1836.76,389.696 2064.07,238.836 2291.38,87.9763 "/>
<path clip-path="url(#clip450)" d="M256.476 198.898 L525.763 198.898 L525.763 95.2176 L256.476 95.2176  Z" fill="#ffffff" fill-rule="evenodd" fill-opacity="1"/>
<polyline clip-path="url(#clip450)" style="stroke:#000000; stroke-linecap:round; stroke-linejoin:round; stroke-width:4; stroke-opacity:1; fill:none" points="256.476,198.898 525.763,198.898 525.763,95.2176 256.476,95.2176 256.476,198.898 "/>
<polyline clip-path="url(#clip450)" style="stroke:#009af9; stroke-linecap:round; stroke-linejoin:round; stroke-width:4; stroke-opacity:1; fill:none" points="280.571,147.058 425.142,147.058 "/>
<path clip-path="url(#clip450)" d="M463.08 166.745 Q461.275 171.375 459.562 172.787 Q457.849 174.199 454.978 174.199 L451.575 174.199 L451.575 170.634 L454.075 170.634 Q455.835 170.634 456.807 169.8 Q457.779 168.967 458.96 165.865 L459.724 163.921 L449.238 138.412 L453.751 138.412 L461.853 158.689 L469.955 138.412 L474.469 138.412 L463.08 166.745 Z" fill="#000000" fill-rule="nonzero" fill-opacity="1" /><path clip-path="url(#clip450)" d="M481.761 160.402 L489.399 160.402 L489.399 134.037 L481.089 135.703 L481.089 131.444 L489.353 129.778 L494.029 129.778 L494.029 160.402 L501.668 160.402 L501.668 164.338 L481.761 164.338 L481.761 160.402 Z" fill="#000000" fill-rule="nonzero" fill-opacity="1" /></svg>
