<?xml version="1.0" encoding="utf-8"?>
<svg xmlns="http://www.w3.org/2000/svg" xmlns:xlink="http://www.w3.org/1999/xlink" width="600" height="400" viewBox="0 0 2400 1600">
<defs>
  <clipPath id="clip390">
    <rect x="0" y="0" width="2400" height="1600"/>
  </clipPath>
</defs>
<path clip-path="url(#clip390)" d="M0 1600 L2400 1600 L2400 0 L0 0  Z" fill="#ffffff" fill-rule="evenodd" fill-opacity="1"/>
<defs>
  <clipPath id="clip391">
    <rect x="480" y="0" width="1681" height="1600"/>
  </clipPath>
</defs>
<path clip-path="url(#clip390)" d="M172.015 1486.45 L2352.76 1486.45 L2352.76 47.2441 L172.015 47.2441  Z" fill="#ffffff" fill-rule="evenodd" fill-opacity="1"/>
<defs>
  <clipPath id="clip392">
    <rect x="172" y="47" width="2182" height="1440"/>
  </clipPath>
</defs>
<polyline clip-path="url(#clip392)" style="stroke:#000000; stroke-linecap:round; stroke-linejoin:round; stroke-width:2; stroke-opacity:0.1; fill:none" points="517.5,1486.45 517.5,47.2441 "/>
<polyline clip-path="url(#clip392)" style="stroke:#000000; stroke-linecap:round; stroke-linejoin:round; stroke-width:2; stroke-opacity:0.1; fill:none" points="872.207,1486.45 872.207,47.2441 "/>
<polyline clip-path="url(#clip392)" style="stroke:#000000; stroke-linecap:round; stroke-linejoin:round; stroke-width:2; stroke-opacity:0.1; fill:none" points="1226.91,1486.45 1226.91,47.2441 "/>
<polyline clip-path="url(#clip392)" style="stroke:#000000; stroke-linecap:round; stroke-linejoin:round; stroke-width:2; stroke-opacity:0.1; fill:none" points="1581.62,1486.45 1581.62,47.2441 "/>
<polyline clip-path="url(#clip392)" style="stroke:#000000; stroke-linecap:round; stroke-linejoin:round; stroke-width:2; stroke-opacity:0.1; fill:none" points="1936.33,1486.45 1936.33,47.2441 "/>
<polyline clip-path="url(#clip392)" style="stroke:#000000; stroke-linecap:round; stroke-linejoin:round; stroke-width:2; stroke-opacity:0.1; fill:none" points="2291.04,1486.45 2291.04,47.2441 "/>
<polyline clip-path="url(#clip390)" style="stroke:#000000; stroke-linecap:round; stroke-linejoin:round; stroke-width:4; stroke-opacity:1; fill:none" points="172.015,1486.45 2352.76,1486.45 "/>
<polyline clip-path="url(#clip390)" style="stroke:#000000; stroke-linecap:round; stroke-linejoin:round; stroke-width:4; stroke-opacity:1; fill:none" points="517.5,1486.45 517.5,1467.55 "/>
<polyline clip-path="url(#clip390)" style="stroke:#000000; stroke-linecap:round; stroke-linejoin:round; stroke-width:4; stroke-opacity:1; fill:none" points="872.207,1486.45 872.207,1467.55 "/>
<polyline clip-path="url(#clip390)" style="stroke:#000000; stroke-linecap:round; stroke-linejoin:round; stroke-width:4; stroke-opacity:1; fill:none" points="1226.91,1486.45 1226.91,1467.55 "/>
<polyline clip-path="url(#clip390)" style="stroke:#000000; stroke-linecap:round; stroke-linejoin:round; stroke-width:4; stroke-opacity:1; fill:none" points="1581.62,1486.45 1581.62,1467.55 "/>
<polyline clip-path="url(#clip390)" style="stroke:#000000; stroke-linecap:round; stroke-linejoin:round; stroke-width:4; stroke-opacity:1; fill:none" points="1936.33,1486.45 1936.33,1467.55 "/>
<polyline clip-path="url(#clip390)" style="stroke:#000000; stroke-linecap:round; stroke-linejoin:round; stroke-width:4; stroke-opacity:1; fill:none" points="2291.04,1486.45 2291.04,1467.55 "/>
<path clip-path="url(#clip390)" d="M507.778 1514.29 L526.134 1514.29 L526.134 1518.22 L512.06 1518.22 L512.06 1526.7 Q513.079 1526.35 514.097 1526.19 Q515.116 1526 516.134 1526 Q521.921 1526 525.301 1529.17 Q528.68 1532.34 528.68 1537.76 Q528.68 1543.34 525.208 1546.44 Q521.736 1549.52 515.417 1549.52 Q513.241 1549.52 510.972 1549.15 Q508.727 1548.78 506.319 1548.04 L506.319 1543.34 Q508.403 1544.47 510.625 1545.03 Q512.847 1545.58 515.324 1545.58 Q519.329 1545.58 521.666 1543.48 Q524.004 1541.37 524.004 1537.76 Q524.004 1534.15 521.666 1532.04 Q519.329 1529.94 515.324 1529.94 Q513.449 1529.94 511.574 1530.35 Q509.722 1530.77 507.778 1531.65 L507.778 1514.29 Z" fill="#000000" fill-rule="nonzero" fill-opacity="1" /><path clip-path="url(#clip390)" d="M846.895 1544.91 L854.534 1544.91 L854.534 1518.55 L846.224 1520.21 L846.224 1515.95 L854.487 1514.29 L859.163 1514.29 L859.163 1544.91 L866.802 1544.91 L866.802 1548.85 L846.895 1548.85 L846.895 1544.91 Z" fill="#000000" fill-rule="nonzero" fill-opacity="1" /><path clip-path="url(#clip390)" d="M886.247 1517.37 Q882.635 1517.37 880.807 1520.93 Q879.001 1524.47 879.001 1531.6 Q879.001 1538.71 880.807 1542.27 Q882.635 1545.82 886.247 1545.82 Q889.881 1545.82 891.686 1542.27 Q893.515 1538.71 893.515 1531.6 Q893.515 1524.47 891.686 1520.93 Q889.881 1517.37 886.247 1517.37 M886.247 1513.66 Q892.057 1513.66 895.112 1518.27 Q898.191 1522.85 898.191 1531.6 Q898.191 1540.33 895.112 1544.94 Q892.057 1549.52 886.247 1549.52 Q880.436 1549.52 877.358 1544.94 Q874.302 1540.33 874.302 1531.6 Q874.302 1522.85 877.358 1518.27 Q880.436 1513.66 886.247 1513.66 Z" fill="#000000" fill-rule="nonzero" fill-opacity="1" /><path clip-path="url(#clip390)" d="M1202.1 1544.91 L1209.74 1544.91 L1209.74 1518.55 L1201.43 1520.21 L1201.43 1515.95 L1209.69 1514.29 L1214.37 1514.29 L1214.37 1544.91 L1222.01 1544.91 L1222.01 1548.85 L1202.1 1548.85 L1202.1 1544.91 Z" fill="#000000" fill-rule="nonzero" fill-opacity="1" /><path clip-path="url(#clip390)" d="M1231.5 1514.29 L1249.85 1514.29 L1249.85 1518.22 L1235.78 1518.22 L1235.78 1526.7 Q1236.8 1526.35 1237.82 1526.19 Q1238.84 1526 1239.85 1526 Q1245.64 1526 1249.02 1529.17 Q1252.4 1532.34 1252.4 1537.76 Q1252.4 1543.34 1248.93 1546.44 Q1245.46 1549.52 1239.14 1549.52 Q1236.96 1549.52 1234.69 1549.15 Q1232.45 1548.78 1230.04 1548.04 L1230.04 1543.34 Q1232.12 1544.47 1234.35 1545.03 Q1236.57 1545.58 1239.04 1545.58 Q1243.05 1545.58 1245.39 1543.48 Q1247.72 1541.37 1247.72 1537.76 Q1247.72 1534.15 1245.39 1532.04 Q1243.05 1529.94 1239.04 1529.94 Q1237.17 1529.94 1235.29 1530.35 Q1233.44 1530.77 1231.5 1531.65 L1231.5 1514.29 Z" fill="#000000" fill-rule="nonzero" fill-opacity="1" /><path clip-path="url(#clip390)" d="M1560.4 1544.91 L1576.71 1544.91 L1576.71 1548.85 L1554.77 1548.85 L1554.77 1544.91 Q1557.43 1542.16 1562.02 1537.53 Q1566.62 1532.88 1567.8 1531.53 Q1570.05 1529.01 1570.93 1527.27 Q1571.83 1525.51 1571.83 1523.82 Q1571.83 1521.07 1569.89 1519.33 Q1567.96 1517.6 1564.86 1517.6 Q1562.66 1517.6 1560.21 1518.36 Q1557.78 1519.13 1555 1520.68 L1555 1515.95 Q1557.83 1514.82 1560.28 1514.24 Q1562.73 1513.66 1564.77 1513.66 Q1570.14 1513.66 1573.34 1516.35 Q1576.53 1519.03 1576.53 1523.52 Q1576.53 1525.65 1575.72 1527.57 Q1574.93 1529.47 1572.83 1532.07 Q1572.25 1532.74 1569.15 1535.95 Q1566.04 1539.15 1560.4 1544.91 Z" fill="#000000" fill-rule="nonzero" fill-opacity="1" /><path clip-path="url(#clip390)" d="M1596.53 1517.37 Q1592.92 1517.37 1591.09 1520.93 Q1589.28 1524.47 1589.28 1531.6 Q1589.28 1538.71 1591.09 1542.27 Q1592.92 1545.82 1596.53 1545.82 Q1600.16 1545.82 1601.97 1542.27 Q1603.8 1538.71 1603.8 1531.6 Q1603.8 1524.47 1601.97 1520.93 Q1600.16 1517.37 1596.53 1517.37 M1596.53 1513.66 Q1602.34 1513.66 1605.4 1518.27 Q1608.47 1522.85 1608.47 1531.6 Q1608.47 1540.33 1605.4 1544.94 Q1602.34 1549.52 1596.53 1549.52 Q1590.72 1549.52 1587.64 1544.94 Q1584.58 1540.33 1584.58 1531.6 Q1584.58 1522.85 1587.64 1518.27 Q1590.72 1513.66 1596.53 1513.66 Z" fill="#000000" fill-rule="nonzero" fill-opacity="1" /><path clip-path="url(#clip390)" d="M1915.6 1544.91 L1931.92 1544.91 L1931.92 1548.85 L1909.98 1548.85 L1909.98 1544.91 Q1912.64 1542.16 1917.22 1537.53 Q1921.83 1532.88 1923.01 1531.53 Q1925.25 1529.01 1926.13 1527.27 Q1927.04 1525.51 1927.04 1523.82 Q1927.04 1521.07 1925.09 1519.33 Q1923.17 1517.6 1920.07 1517.6 Q1917.87 1517.6 1915.42 1518.36 Q1912.98 1519.13 1910.21 1520.68 L1910.21 1515.95 Q1913.03 1514.82 1915.48 1514.24 Q1917.94 1513.66 1919.98 1513.66 Q1925.35 1513.66 1928.54 1516.35 Q1931.73 1519.03 1931.73 1523.52 Q1931.73 1525.65 1930.92 1527.57 Q1930.14 1529.47 1928.03 1532.07 Q1927.45 1532.74 1924.35 1535.95 Q1921.25 1539.15 1915.6 1544.91 Z" fill="#000000" fill-rule="nonzero" fill-opacity="1" /><path clip-path="url(#clip390)" d="M1941.78 1514.29 L1960.14 1514.29 L1960.14 1518.22 L1946.06 1518.22 L1946.06 1526.7 Q1947.08 1526.35 1948.1 1526.19 Q1949.12 1526 1950.14 1526 Q1955.92 1526 1959.3 1529.17 Q1962.68 1532.34 1962.68 1537.76 Q1962.68 1543.34 1959.21 1546.44 Q1955.74 1549.52 1949.42 1549.52 Q1947.24 1549.52 1944.98 1549.15 Q1942.73 1548.78 1940.32 1548.04 L1940.32 1543.34 Q1942.41 1544.47 1944.63 1545.03 Q1946.85 1545.58 1949.33 1545.58 Q1953.33 1545.58 1955.67 1543.48 Q1958.01 1541.37 1958.01 1537.76 Q1958.01 1534.15 1955.67 1532.04 Q1953.33 1529.94 1949.33 1529.94 Q1947.45 1529.94 1945.58 1530.35 Q1943.73 1530.77 1941.78 1531.65 L1941.78 1514.29 Z" fill="#000000" fill-rule="nonzero" fill-opacity="1" /><path clip-path="url(#clip390)" d="M2279.88 1530.21 Q2283.24 1530.93 2285.11 1533.2 Q2287.01 1535.47 2287.01 1538.8 Q2287.01 1543.92 2283.49 1546.72 Q2279.97 1549.52 2273.49 1549.52 Q2271.31 1549.52 2269 1549.08 Q2266.71 1548.66 2264.25 1547.81 L2264.25 1543.29 Q2266.2 1544.43 2268.51 1545.01 Q2270.83 1545.58 2273.35 1545.58 Q2277.75 1545.58 2280.04 1543.85 Q2282.36 1542.11 2282.36 1538.8 Q2282.36 1535.75 2280.2 1534.03 Q2278.07 1532.3 2274.25 1532.3 L2270.23 1532.3 L2270.23 1528.45 L2274.44 1528.45 Q2277.89 1528.45 2279.72 1527.09 Q2281.55 1525.7 2281.55 1523.11 Q2281.55 1520.45 2279.65 1519.03 Q2277.77 1517.6 2274.25 1517.6 Q2272.33 1517.6 2270.13 1518.01 Q2267.94 1518.43 2265.3 1519.31 L2265.3 1515.14 Q2267.96 1514.4 2270.27 1514.03 Q2272.61 1513.66 2274.67 1513.66 Q2280 1513.66 2283.1 1516.09 Q2286.2 1518.5 2286.2 1522.62 Q2286.2 1525.49 2284.56 1527.48 Q2282.91 1529.45 2279.88 1530.21 Z" fill="#000000" fill-rule="nonzero" fill-opacity="1" /><path clip-path="url(#clip390)" d="M2305.87 1517.37 Q2302.26 1517.37 2300.43 1520.93 Q2298.63 1524.47 2298.63 1531.6 Q2298.63 1538.71 2300.43 1542.27 Q2302.26 1545.82 2305.87 1545.82 Q2309.51 1545.82 2311.31 1542.27 Q2313.14 1538.71 2313.14 1531.6 Q2313.14 1524.47 2311.31 1520.93 Q2309.51 1517.37 2305.87 1517.37 M2305.87 1513.66 Q2311.68 1513.66 2314.74 1518.27 Q2317.82 1522.85 2317.82 1531.6 Q2317.82 1540.33 2314.74 1544.94 Q2311.68 1549.52 2305.87 1549.52 Q2300.06 1549.52 2296.99 1544.94 Q2293.93 1540.33 2293.93 1531.6 Q2293.93 1522.85 2296.99 1518.27 Q2300.06 1513.66 2305.87 1513.66 Z" fill="#000000" fill-rule="nonzero" fill-opacity="1" /><polyline clip-path="url(#clip392)" style="stroke:#000000; stroke-linecap:round; stroke-linejoin:round; stroke-width:2; stroke-opacity:0.1; fill:none" points="172.015,1447.23 2352.76,1447.23 "/>
<polyline clip-path="url(#clip392)" style="stroke:#000000; stroke-linecap:round; stroke-linejoin:round; stroke-width:2; stroke-opacity:0.1; fill:none" points="172.015,1145.17 2352.76,1145.17 "/>
<polyline clip-path="url(#clip392)" style="stroke:#000000; stroke-linecap:round; stroke-linejoin:round; stroke-width:2; stroke-opacity:0.1; fill:none" points="172.015,843.115 2352.76,843.115 "/>
<polyline clip-path="url(#clip392)" style="stroke:#000000; stroke-linecap:round; stroke-linejoin:round; stroke-width:2; stroke-opacity:0.1; fill:none" points="172.015,541.06 2352.76,541.06 "/>
<polyline clip-path="url(#clip392)" style="stroke:#000000; stroke-linecap:round; stroke-linejoin:round; stroke-width:2; stroke-opacity:0.1; fill:none" points="172.015,239.004 2352.76,239.004 "/>
<polyline clip-path="url(#clip390)" style="stroke:#000000; stroke-linecap:round; stroke-linejoin:round; stroke-width:4; stroke-opacity:1; fill:none" points="172.015,1486.45 172.015,47.2441 "/>
<polyline clip-path="url(#clip390)" style="stroke:#000000; stroke-linecap:round; stroke-linejoin:round; stroke-width:4; stroke-opacity:1; fill:none" points="172.015,1447.23 190.912,1447.23 "/>
<polyline clip-path="url(#clip390)" style="stroke:#000000; stroke-linecap:round; stroke-linejoin:round; stroke-width:4; stroke-opacity:1; fill:none" points="172.015,1145.17 190.912,1145.17 "/>
<polyline clip-path="url(#clip390)" style="stroke:#000000; stroke-linecap:round; stroke-linejoin:round; stroke-width:4; stroke-opacity:1; fill:none" points="172.015,843.115 190.912,843.115 "/>
<polyline clip-path="url(#clip390)" style="stroke:#000000; stroke-linecap:round; stroke-linejoin:round; stroke-width:4; stroke-opacity:1; fill:none" points="172.015,541.06 190.912,541.06 "/>
<polyline clip-path="url(#clip390)" style="stroke:#000000; stroke-linecap:round; stroke-linejoin:round; stroke-width:4; stroke-opacity:1; fill:none" points="172.015,239.004 190.912,239.004 "/>
<path clip-path="url(#clip390)" d="M124.07 1433.02 Q120.459 1433.02 118.631 1436.59 Q116.825 1440.13 116.825 1447.26 Q116.825 1454.37 118.631 1457.93 Q120.459 1461.47 124.07 1461.47 Q127.705 1461.47 129.51 1457.93 Q131.339 1454.37 131.339 1447.26 Q131.339 1440.13 129.51 1436.59 Q127.705 1433.02 124.07 1433.02 M124.07 1429.32 Q129.881 1429.32 132.936 1433.93 Q136.015 1438.51 136.015 1447.26 Q136.015 1455.99 132.936 1460.59 Q129.881 1465.18 124.07 1465.18 Q118.26 1465.18 115.182 1460.59 Q112.126 1455.99 112.126 1447.26 Q112.126 1438.51 115.182 1433.93 Q118.26 1429.32 124.07 1429.32 Z" fill="#000000" fill-rule="nonzero" fill-opacity="1" /><path clip-path="url(#clip390)" d="M57.7745 1158.52 L74.0939 1158.52 L74.0939 1162.45 L52.1495 1162.45 L52.1495 1158.52 Q54.8115 1155.76 59.3949 1151.13 Q64.0013 1146.48 65.1819 1145.14 Q67.4272 1142.61 68.3068 1140.88 Q69.2096 1139.12 69.2096 1137.43 Q69.2096 1134.67 67.2652 1132.94 Q65.3439 1131.2 62.2421 1131.2 Q60.043 1131.2 57.5893 1131.96 Q55.1588 1132.73 52.381 1134.28 L52.381 1129.56 Q55.2051 1128.42 57.6588 1127.84 Q60.1124 1127.27 62.1495 1127.27 Q67.5198 1127.27 70.7142 1129.95 Q73.9087 1132.64 73.9087 1137.13 Q73.9087 1139.26 73.0985 1141.18 Q72.3115 1143.08 70.205 1145.67 Q69.6263 1146.34 66.5245 1149.56 Q63.4226 1152.75 57.7745 1158.52 Z" fill="#000000" fill-rule="nonzero" fill-opacity="1" /><path clip-path="url(#clip390)" d="M93.9086 1130.97 Q90.2975 1130.97 88.4688 1134.53 Q86.6632 1138.08 86.6632 1145.21 Q86.6632 1152.31 88.4688 1155.88 Q90.2975 1159.42 93.9086 1159.42 Q97.5428 1159.42 99.3483 1155.88 Q101.177 1152.31 101.177 1145.21 Q101.177 1138.08 99.3483 1134.53 Q97.5428 1130.97 93.9086 1130.97 M93.9086 1127.27 Q99.7187 1127.27 102.774 1131.87 Q105.853 1136.46 105.853 1145.21 Q105.853 1153.93 102.774 1158.54 Q99.7187 1163.12 93.9086 1163.12 Q88.0984 1163.12 85.0197 1158.54 Q81.9642 1153.93 81.9642 1145.21 Q81.9642 1136.46 85.0197 1131.87 Q88.0984 1127.27 93.9086 1127.27 Z" fill="#000000" fill-rule="nonzero" fill-opacity="1" /><path clip-path="url(#clip390)" d="M124.07 1130.97 Q120.459 1130.97 118.631 1134.53 Q116.825 1138.08 116.825 1145.21 Q116.825 1152.31 118.631 1155.88 Q120.459 1159.42 124.07 1159.42 Q127.705 1159.42 129.51 1155.88 Q131.339 1152.31 131.339 1145.21 Q131.339 1138.08 129.51 1134.53 Q127.705 1130.97 124.07 1130.97 M124.07 1127.27 Q129.881 1127.27 132.936 1131.87 Q136.015 1136.46 136.015 1145.21 Q136.015 1153.93 132.936 1158.54 Q129.881 1163.12 124.07 1163.12 Q118.26 1163.12 115.182 1158.54 Q112.126 1153.93 112.126 1145.21 Q112.126 1136.46 115.182 1131.87 Q118.26 1127.27 124.07 1127.27 Z" fill="#000000" fill-rule="nonzero" fill-opacity="1" /><path clip-path="url(#clip390)" d="M66.5939 829.909 L54.7884 848.358 L66.5939 848.358 L66.5939 829.909 M65.367 825.835 L71.2466 825.835 L71.2466 848.358 L76.1772 848.358 L76.1772 852.247 L71.2466 852.247 L71.2466 860.395 L66.5939 860.395 L66.5939 852.247 L50.9921 852.247 L50.9921 847.733 L65.367 825.835 Z" fill="#000000" fill-rule="nonzero" fill-opacity="1" /><path clip-path="url(#clip390)" d="M93.9086 828.914 Q90.2975 828.914 88.4688 832.478 Q86.6632 836.02 86.6632 843.15 Q86.6632 850.256 88.4688 853.821 Q90.2975 857.363 93.9086 857.363 Q97.5428 857.363 99.3483 853.821 Q101.177 850.256 101.177 843.15 Q101.177 836.02 99.3483 832.478 Q97.5428 828.914 93.9086 828.914 M93.9086 825.21 Q99.7187 825.21 102.774 829.816 Q105.853 834.4 105.853 843.15 Q105.853 851.877 102.774 856.483 Q99.7187 861.066 93.9086 861.066 Q88.0984 861.066 85.0197 856.483 Q81.9642 851.877 81.9642 843.15 Q81.9642 834.4 85.0197 829.816 Q88.0984 825.21 93.9086 825.21 Z" fill="#000000" fill-rule="nonzero" fill-opacity="1" /><path clip-path="url(#clip390)" d="M124.07 828.914 Q120.459 828.914 118.631 832.478 Q116.825 836.02 116.825 843.15 Q116.825 850.256 118.631 853.821 Q120.459 857.363 124.07 857.363 Q127.705 857.363 129.51 853.821 Q131.339 850.256 131.339 843.15 Q131.339 836.02 129.51 832.478 Q127.705 828.914 124.07 828.914 M124.07 825.21 Q129.881 825.21 132.936 829.816 Q136.015 834.4 136.015 843.15 Q136.015 851.877 132.936 856.483 Q129.881 861.066 124.07 861.066 Q118.26 861.066 115.182 856.483 Q112.126 851.877 112.126 843.15 Q112.126 834.4 115.182 829.816 Q118.26 825.21 124.07 825.21 Z" fill="#000000" fill-rule="nonzero" fill-opacity="1" /><path clip-path="url(#clip390)" d="M64.3254 539.196 Q61.1773 539.196 59.3254 541.349 Q57.4967 543.502 57.4967 547.252 Q57.4967 550.978 59.3254 553.154 Q61.1773 555.307 64.3254 555.307 Q67.4735 555.307 69.3022 553.154 Q71.1541 550.978 71.1541 547.252 Q71.1541 543.502 69.3022 541.349 Q67.4735 539.196 64.3254 539.196 M73.6077 524.543 L73.6077 528.803 Q71.8485 527.969 70.0429 527.529 Q68.2606 527.09 66.5013 527.09 Q61.8717 527.09 59.418 530.215 Q56.9875 533.34 56.6402 539.659 Q58.006 537.645 60.0662 536.58 Q62.1263 535.492 64.6032 535.492 Q69.8115 535.492 72.8207 538.664 Q75.8531 541.812 75.8531 547.252 Q75.8531 552.576 72.705 555.793 Q69.5568 559.011 64.3254 559.011 Q58.33 559.011 55.1588 554.427 Q51.9875 549.821 51.9875 541.094 Q51.9875 532.9 55.8764 528.039 Q59.7652 523.155 66.3161 523.155 Q68.0754 523.155 69.8578 523.502 Q71.6633 523.849 73.6077 524.543 Z" fill="#000000" fill-rule="nonzero" fill-opacity="1" /><path clip-path="url(#clip390)" d="M93.9086 526.858 Q90.2975 526.858 88.4688 530.423 Q86.6632 533.965 86.6632 541.094 Q86.6632 548.201 88.4688 551.765 Q90.2975 555.307 93.9086 555.307 Q97.5428 555.307 99.3483 551.765 Q101.177 548.201 101.177 541.094 Q101.177 533.965 99.3483 530.423 Q97.5428 526.858 93.9086 526.858 M93.9086 523.155 Q99.7187 523.155 102.774 527.761 Q105.853 532.344 105.853 541.094 Q105.853 549.821 102.774 554.427 Q99.7187 559.011 93.9086 559.011 Q88.0984 559.011 85.0197 554.427 Q81.9642 549.821 81.9642 541.094 Q81.9642 532.344 85.0197 527.761 Q88.0984 523.155 93.9086 523.155 Z" fill="#000000" fill-rule="nonzero" fill-opacity="1" /><path clip-path="url(#clip390)" d="M124.07 526.858 Q120.459 526.858 118.631 530.423 Q116.825 533.965 116.825 541.094 Q116.825 548.201 118.631 551.765 Q120.459 555.307 124.07 555.307 Q127.705 555.307 129.51 551.765 Q131.339 548.201 131.339 541.094 Q131.339 533.965 129.51 530.423 Q127.705 526.858 124.07 526.858 M124.07 523.155 Q129.881 523.155 132.936 527.761 Q136.015 532.344 136.015 541.094 Q136.015 549.821 132.936 554.427 Q129.881 559.011 124.07 559.011 Q118.26 559.011 115.182 554.427 Q112.126 549.821 112.126 541.094 Q112.126 532.344 115.182 527.761 Q118.26 523.155 124.07 523.155 Z" fill="#000000" fill-rule="nonzero" fill-opacity="1" /><path clip-path="url(#clip390)" d="M63.7467 239.872 Q60.4134 239.872 58.4921 241.654 Q56.5939 243.437 56.5939 246.562 Q56.5939 249.687 58.4921 251.469 Q60.4134 253.252 63.7467 253.252 Q67.08 253.252 69.0013 251.469 Q70.9226 249.664 70.9226 246.562 Q70.9226 243.437 69.0013 241.654 Q67.1032 239.872 63.7467 239.872 M59.0708 237.881 Q56.0615 237.141 54.3717 235.08 Q52.7051 233.02 52.7051 230.057 Q52.7051 225.914 55.6449 223.506 Q58.6078 221.099 63.7467 221.099 Q68.9087 221.099 71.8485 223.506 Q74.7883 225.914 74.7883 230.057 Q74.7883 233.02 73.0985 235.08 Q71.4318 237.141 68.4457 237.881 Q71.8253 238.668 73.7003 240.96 Q75.5985 243.252 75.5985 246.562 Q75.5985 251.585 72.5198 254.27 Q69.4642 256.955 63.7467 256.955 Q58.0291 256.955 54.9504 254.27 Q51.8949 251.585 51.8949 246.562 Q51.8949 243.252 53.793 240.96 Q55.6912 238.668 59.0708 237.881 M57.3578 230.497 Q57.3578 233.182 59.0245 234.687 Q60.7143 236.192 63.7467 236.192 Q66.7559 236.192 68.4457 234.687 Q70.1587 233.182 70.1587 230.497 Q70.1587 227.812 68.4457 226.307 Q66.7559 224.803 63.7467 224.803 Q60.7143 224.803 59.0245 226.307 Q57.3578 227.812 57.3578 230.497 Z" fill="#000000" fill-rule="nonzero" fill-opacity="1" /><path clip-path="url(#clip390)" d="M93.9086 224.803 Q90.2975 224.803 88.4688 228.368 Q86.6632 231.909 86.6632 239.039 Q86.6632 246.145 88.4688 249.71 Q90.2975 253.252 93.9086 253.252 Q97.5428 253.252 99.3483 249.71 Q101.177 246.145 101.177 239.039 Q101.177 231.909 99.3483 228.368 Q97.5428 224.803 93.9086 224.803 M93.9086 221.099 Q99.7187 221.099 102.774 225.705 Q105.853 230.289 105.853 239.039 Q105.853 247.766 102.774 252.372 Q99.7187 256.955 93.9086 256.955 Q88.0984 256.955 85.0197 252.372 Q81.9642 247.766 81.9642 239.039 Q81.9642 230.289 85.0197 225.705 Q88.0984 221.099 93.9086 221.099 Z" fill="#000000" fill-rule="nonzero" fill-opacity="1" /><path clip-path="url(#clip390)" d="M124.07 224.803 Q120.459 224.803 118.631 228.368 Q116.825 231.909 116.825 239.039 Q116.825 246.145 118.631 249.71 Q120.459 253.252 124.07 253.252 Q127.705 253.252 129.51 249.71 Q131.339 246.145 131.339 239.039 Q131.339 231.909 129.51 228.368 Q127.705 224.803 124.07 224.803 M124.07 221.099 Q129.881 221.099 132.936 225.705 Q136.015 230.289 136.015 239.039 Q136.015 247.766 132.936 252.372 Q129.881 256.955 124.07 256.955 Q118.26 256.955 115.182 252.372 Q112.126 247.766 112.126 239.039 Q112.126 230.289 115.182 225.705 Q118.26 221.099 124.07 221.099 Z" fill="#000000" fill-rule="nonzero" fill-opacity="1" /><polyline clip-path="url(#clip392)" style="stroke:#009af9; stroke-linecap:round; stroke-linejoin:round; stroke-width:4; stroke-opacity:1; fill:none" points="233.734,1445.72 304.675,1441.18 375.617,1433.63 446.558,1423.06 517.5,1409.47 588.441,1392.86 659.383,1373.22 730.324,1350.57 801.266,1324.89 872.207,1296.2 943.149,1264.48 1014.09,1229.75 1085.03,1191.99 1155.97,1151.21 1226.91,1107.41 1297.86,1060.59 1368.8,1010.76 1439.74,957.896 1510.68,902.016 1581.62,843.115 1652.56,781.194 1723.5,716.252 1794.45,648.289 1865.39,577.306 1936.33,503.303 2007.27,426.278 2078.21,346.234 2149.15,263.168 2220.1,177.083 2291.04,87.9763 "/>
<path clip-path="url(#clip390)" d="M244.706 198.898 L515.211 198.898 L515.211 95.2176 L244.706 95.2176  Z" fill="#ffffff" fill-rule="evenodd" fill-opacity="1"/>
<polyline clip-path="url(#clip390)" style="stroke:#000000; stroke-linecap:round; stroke-linejoin:round; stroke-width:4; stroke-opacity:1; fill:none" points="244.706,198.898 515.211,198.898 515.211,95.2176 244.706,95.2176 244.706,198.898 "/>
<polyline clip-path="url(#clip390)" style="stroke:#009af9; stroke-linecap:round; stroke-linejoin:round; stroke-width:4; stroke-opacity:1; fill:none" points="268.937,147.058 414.319,147.058 "/>
<path clip-path="url(#clip390)" d="M452.392 166.745 Q450.587 171.375 448.874 172.787 Q447.161 174.199 444.291 174.199 L440.888 174.199 L440.888 170.634 L443.388 170.634 Q445.147 170.634 446.119 169.8 Q447.091 168.967 448.272 165.865 L449.036 163.921 L438.55 138.412 L443.064 138.412 L451.166 158.689 L459.267 138.412 L463.781 138.412 L452.392 166.745 Z" fill="#000000" fill-rule="nonzero" fill-opacity="1" /><path clip-path="url(#clip390)" d="M471.073 160.402 L478.712 160.402 L478.712 134.037 L470.402 135.703 L470.402 131.444 L478.665 129.778 L483.341 129.778 L483.341 160.402 L490.98 160.402 L490.98 164.338 L471.073 164.338 L471.073 160.402 Z" fill="#000000" fill-rule="nonzero" fill-opacity="1" /></svg>
